<svg width="16" height="16" viewBox="0 0 16 16" fill="none" xmlns="http://www.w3.org/2000/svg">
<path d="M8.68904 2.16663C9.60352 2.16662 10.3205 2.16662 10.8967 2.2137C11.4835 2.26164 11.9682 2.36088 12.407 2.58443C13.1283 2.95195 13.7147 3.53837 14.0822 4.25966C14.3503 4.7858 14.4429 5.38818 14.4776 6.16663H1.52236C1.55714 5.38818 1.64973 4.7858 1.91781 4.25966C2.28532 3.53837 2.87175 2.95195 3.59304 2.58443C4.03179 2.36088 4.51653 2.26164 5.10329 2.2137C5.67952 2.16662 6.39648 2.16662 7.31096 2.16663H8.68904Z" fill="#6A727C"/>
<path fill-rule="evenodd" clip-rule="evenodd" d="M1.50152 7.16663C1.5 7.42267 1.5 7.6986 1.5 7.9961V8.02233C1.5 8.93681 1.49999 9.65377 1.54707 10.23C1.59501 10.8168 1.69425 11.3015 1.91781 11.7403C2.28532 12.4615 2.87175 13.048 3.59304 13.4155C4.03179 13.639 4.51653 13.7383 5.10329 13.7862C5.67949 13.8333 6.39641 13.8333 7.31082 13.8333H8.68905C9.60346 13.8333 10.3205 13.8333 10.8967 13.7862C11.4835 13.7383 11.9682 13.639 12.407 13.4155C13.1283 13.048 13.7147 12.4615 14.0822 11.7403C14.3057 11.3015 14.405 10.8168 14.4529 10.23C14.5 9.6538 14.5 8.93688 14.5 8.02248V7.99609C14.5 7.6986 14.5 7.42267 14.4985 7.16663H1.50152ZM8.16667 11.3333C8.16667 11.0572 8.39052 10.8333 8.66667 10.8333H11.3333C11.6095 10.8333 11.8333 11.0572 11.8333 11.3333C11.8333 11.6094 11.6095 11.8333 11.3333 11.8333H8.66667C8.39052 11.8333 8.16667 11.6094 8.16667 11.3333Z" fill="#6A727C"/>
</svg>
