<svg width="16" height="16" viewBox="0 0 16 16" fill="none" xmlns="http://www.w3.org/2000/svg">
<path fill-rule="evenodd" clip-rule="evenodd" d="M1.33398 6.66669C1.33398 3.35298 4.02028 0.666687 7.33398 0.666687C10.6477 0.666687 13.334 3.35298 13.334 6.66669C13.334 9.98039 10.6477 12.6667 7.33398 12.6667C4.02028 12.6667 1.33398 9.98039 1.33398 6.66669ZM6.63969 2.62949C6.68289 2.90223 6.49681 3.15835 6.22406 3.20155C5.0117 3.39357 4.06086 4.3444 3.86884 5.55677C3.82565 5.82951 3.56953 6.01559 3.29678 5.97239C3.02404 5.92919 2.83796 5.67307 2.88116 5.40033C3.14095 3.76008 4.42737 2.47365 6.06763 2.21386C6.34037 2.17066 6.59649 2.35674 6.63969 2.62949Z" fill="#D67B0F"/>
<path d="M12.3138 11.6465C12.509 11.4512 12.8256 11.4512 13.0209 11.6465L15.6875 14.3131C15.8827 14.5084 15.8827 14.8249 15.6875 15.0202C15.4922 15.2155 15.1756 15.2155 14.9804 15.0202L12.3138 12.3536C12.1185 12.1583 12.1185 11.8417 12.3138 11.6465Z" fill="#D67B0F"/>
</svg>
