<svg width="16" height="16" viewBox="0 0 16 16" fill="none" xmlns="http://www.w3.org/2000/svg">
<path d="M8.00065 0.166626C8.27679 0.166626 8.50065 0.390484 8.50065 0.666626V1.99996C8.50065 2.2761 8.27679 2.49996 8.00065 2.49996C7.72451 2.49996 7.50065 2.2761 7.50065 1.99996V0.666626C7.50065 0.390484 7.72451 0.166626 8.00065 0.166626Z" fill="#0077E6"/>
<path d="M2.46165 1.7943C2.65691 1.59904 2.97349 1.59904 3.16876 1.7943L4.11156 2.73711C4.30683 2.93237 4.30683 3.24895 4.11156 3.44421C3.9163 3.63948 3.59972 3.63948 3.40446 3.44421L2.46165 2.50141C2.26639 2.30614 2.26639 1.98956 2.46165 1.7943Z" fill="#0077E6"/>
<path d="M13.5397 1.7943C13.7349 1.98956 13.7349 2.30614 13.5397 2.50141L12.5968 3.44421C12.4016 3.63948 12.085 3.63948 11.8897 3.44421C11.6945 3.24895 11.6945 2.93237 11.8897 2.73711L12.8325 1.7943C13.0278 1.59904 13.3444 1.59904 13.5397 1.7943Z" fill="#0077E6"/>
<path d="M4.16732 7.83329V7.33329C4.16732 5.2162 5.88356 3.49996 8.00065 3.49996C10.1177 3.49996 11.834 5.2162 11.834 7.33329V7.83329H4.16732Z" fill="#0077E6"/>
<path d="M0.833984 7.33329C0.833984 7.05715 1.05784 6.83329 1.33398 6.83329H2.66732C2.94346 6.83329 3.16732 7.05715 3.16732 7.33329C3.16732 7.60944 2.94346 7.83329 2.66732 7.83329H1.33398C1.05784 7.83329 0.833984 7.60944 0.833984 7.33329Z" fill="#0077E6"/>
<path d="M12.834 7.33329C12.834 7.05715 13.0578 6.83329 13.334 6.83329H14.6673C14.9435 6.83329 15.1673 7.05715 15.1673 7.33329C15.1673 7.60944 14.9435 7.83329 14.6673 7.83329H13.334C13.0578 7.83329 12.834 7.60944 12.834 7.33329Z" fill="#0077E6"/>
<path d="M2.16732 9.33329C2.16732 9.05715 2.39118 8.83329 2.66732 8.83329H13.334C13.6101 8.83329 13.834 9.05715 13.834 9.33329C13.834 9.60944 13.6101 9.83329 13.334 9.83329H2.66732C2.39118 9.83329 2.16732 9.60944 2.16732 9.33329Z" fill="#0077E6"/>
<path d="M4.16732 12C4.16732 11.7238 4.39118 11.5 4.66732 11.5H11.334C11.6101 11.5 11.834 11.7238 11.834 12C11.834 12.2761 11.6101 12.5 11.334 12.5H4.66732C4.39118 12.5 4.16732 12.2761 4.16732 12Z" fill="#0077E6"/>
<path d="M6.16732 14.6666C6.16732 14.3905 6.39118 14.1666 6.66732 14.1666H9.33398C9.61013 14.1666 9.83398 14.3905 9.83398 14.6666C9.83398 14.9428 9.61013 15.1666 9.33398 15.1666H6.66732C6.39118 15.1666 6.16732 14.9428 6.16732 14.6666Z" fill="#0077E6"/>
</svg>
