<svg width="230" height="50" viewBox="0 0 230 50" fill="none" xmlns="http://www.w3.org/2000/svg">
<g filter="url(#filter0_b_1369_4032)">
<rect width="230" height="49.4328" rx="5.49254" fill="url(#paint0_linear_1369_4032)"/>
</g>
<path d="M177.796 27.9662C177.29 27.9662 176.819 27.8733 176.383 27.6874C175.954 27.5016 175.576 27.2453 175.249 26.9185C174.929 26.5853 174.679 26.1944 174.499 25.7458C174.32 25.2973 174.23 24.8038 174.23 24.2656C174.23 23.7337 174.317 23.2435 174.49 22.7949C174.669 22.34 174.919 21.9491 175.239 21.6223C175.56 21.2891 175.935 21.0328 176.364 20.8533C176.793 20.6675 177.264 20.5746 177.777 20.5746C178.283 20.5746 178.735 20.6611 179.132 20.8341C179.536 21.0071 179.876 21.2346 180.151 21.5166C180.427 21.7921 180.625 22.0933 180.747 22.4201L179.738 22.9103C179.59 22.5194 179.347 22.2054 179.007 21.9683C178.668 21.7248 178.258 21.6031 177.777 21.6031C177.303 21.6031 176.883 21.7152 176.518 21.9395C176.153 22.1638 175.867 22.4746 175.662 22.8718C175.464 23.2691 175.364 23.7337 175.364 24.2656C175.364 24.7974 175.467 25.2652 175.672 25.6689C175.883 26.0662 176.172 26.377 176.537 26.6013C176.902 26.8191 177.322 26.9281 177.796 26.9281C178.194 26.9281 178.556 26.848 178.882 26.6878C179.216 26.5212 179.482 26.2905 179.68 25.9957C179.879 25.6946 179.978 25.3453 179.978 24.948V24.4578L180.488 24.9192H177.777V23.958H181.103V24.6308C181.103 25.1563 181.013 25.6273 180.834 26.0438C180.654 26.4539 180.411 26.8031 180.103 27.0915C179.796 27.3798 179.443 27.5977 179.046 27.7451C178.648 27.8925 178.232 27.9662 177.796 27.9662ZM184.664 27.9662C184.164 27.9662 183.706 27.8476 183.289 27.6105C182.879 27.3734 182.552 27.0498 182.309 26.6397C182.065 26.2296 181.944 25.765 181.944 25.246C181.944 24.7205 182.065 24.256 182.309 23.8523C182.552 23.4422 182.879 23.1218 183.289 22.8911C183.699 22.654 184.158 22.5354 184.664 22.5354C185.176 22.5354 185.635 22.654 186.038 22.8911C186.448 23.1218 186.772 23.4422 187.009 23.8523C187.253 24.256 187.374 24.7205 187.374 25.246C187.374 25.7714 187.253 26.2392 187.009 26.6493C186.766 27.0594 186.439 27.383 186.029 27.6201C185.619 27.8508 185.164 27.9662 184.664 27.9662ZM184.664 26.9569C184.971 26.9569 185.244 26.8832 185.481 26.7358C185.718 26.5885 185.904 26.3866 186.038 26.1303C186.179 25.8676 186.25 25.5728 186.25 25.246C186.25 24.9192 186.179 24.6276 186.038 24.3713C185.904 24.115 185.718 23.9131 185.481 23.7658C185.244 23.6184 184.971 23.5447 184.664 23.5447C184.363 23.5447 184.09 23.6184 183.847 23.7658C183.61 23.9131 183.421 24.115 183.28 24.3713C183.145 24.6276 183.078 24.9192 183.078 25.246C183.078 25.5728 183.145 25.8676 183.28 26.1303C183.421 26.3866 183.61 26.5885 183.847 26.7358C184.09 26.8832 184.363 26.9569 184.664 26.9569ZM192.364 27.9085C191.819 27.9085 191.396 27.7547 191.095 27.4471C190.794 27.1395 190.644 26.707 190.644 26.1495V23.6312H189.73V22.6508H189.875C190.118 22.6508 190.307 22.5803 190.442 22.4393C190.576 22.2983 190.644 22.1061 190.644 21.8626V21.4589H191.73V22.6508H192.912V23.6312H191.73V26.1015C191.73 26.2809 191.759 26.4347 191.816 26.5628C191.874 26.6846 191.967 26.7807 192.095 26.8512C192.223 26.9153 192.39 26.9473 192.595 26.9473C192.646 26.9473 192.704 26.9441 192.768 26.9377C192.832 26.9313 192.893 26.9249 192.95 26.9185V27.8508C192.861 27.8636 192.761 27.8765 192.652 27.8893C192.544 27.9021 192.447 27.9085 192.364 27.9085ZM196.425 27.9662C195.925 27.9662 195.467 27.8476 195.051 27.6105C194.641 27.3734 194.314 27.0498 194.07 26.6397C193.827 26.2296 193.705 25.765 193.705 25.246C193.705 24.7205 193.827 24.256 194.07 23.8523C194.314 23.4422 194.641 23.1218 195.051 22.8911C195.461 22.654 195.919 22.5354 196.425 22.5354C196.938 22.5354 197.396 22.654 197.8 22.8911C198.21 23.1218 198.533 23.4422 198.771 23.8523C199.014 24.256 199.136 24.7205 199.136 25.246C199.136 25.7714 199.014 26.2392 198.771 26.6493C198.527 27.0594 198.2 27.383 197.79 27.6201C197.38 27.8508 196.925 27.9662 196.425 27.9662ZM196.425 26.9569C196.733 26.9569 197.005 26.8832 197.242 26.7358C197.479 26.5885 197.665 26.3866 197.8 26.1303C197.941 25.8676 198.011 25.5728 198.011 25.246C198.011 24.9192 197.941 24.6276 197.8 24.3713C197.665 24.115 197.479 23.9131 197.242 23.7658C197.005 23.6184 196.733 23.5447 196.425 23.5447C196.124 23.5447 195.852 23.6184 195.608 23.7658C195.371 23.9131 195.182 24.115 195.041 24.3713C194.907 24.6276 194.839 24.9192 194.839 25.246C194.839 25.5728 194.907 25.8676 195.041 26.1303C195.182 26.3866 195.371 26.5885 195.608 26.7358C195.852 26.8832 196.124 26.9569 196.425 26.9569ZM204.347 27.9662C203.828 27.9662 203.366 27.8476 202.963 27.6105C202.565 27.367 202.248 27.0402 202.011 26.6301C201.78 26.22 201.665 25.7554 201.665 25.2364C201.665 24.7237 201.78 24.2624 202.011 23.8523C202.242 23.4422 202.559 23.1218 202.963 22.8911C203.366 22.654 203.828 22.5354 204.347 22.5354C204.699 22.5354 205.029 22.5995 205.337 22.7277C205.644 22.8494 205.91 23.0192 206.134 23.2371C206.365 23.455 206.535 23.7081 206.644 23.9964L205.692 24.4386C205.583 24.1695 205.407 23.9548 205.164 23.7946C204.927 23.628 204.654 23.5447 204.347 23.5447C204.052 23.5447 203.786 23.6184 203.549 23.7658C203.318 23.9067 203.136 24.1086 203.001 24.3713C202.866 24.6276 202.799 24.9192 202.799 25.246C202.799 25.5728 202.866 25.8676 203.001 26.1303C203.136 26.3866 203.318 26.5885 203.549 26.7358C203.786 26.8832 204.052 26.9569 204.347 26.9569C204.661 26.9569 204.933 26.8768 205.164 26.7166C205.401 26.55 205.577 26.3289 205.692 26.0534L206.644 26.5052C206.541 26.7807 206.375 27.0306 206.144 27.2549C205.92 27.4728 205.654 27.6458 205.346 27.7739C205.039 27.9021 204.706 27.9662 204.347 27.9662ZM209.216 27.9662C208.863 27.9662 208.552 27.9053 208.283 27.7835C208.021 27.6554 207.816 27.4824 207.668 27.2645C207.521 27.0402 207.447 26.7775 207.447 26.4763C207.447 26.1944 207.508 25.9413 207.63 25.717C207.758 25.4927 207.953 25.3037 208.216 25.1499C208.479 24.9961 208.809 24.8871 209.206 24.8231L211.013 24.5251V25.3806L209.418 25.6593C209.129 25.7106 208.918 25.8035 208.783 25.9381C208.649 26.0662 208.581 26.2328 208.581 26.4379C208.581 26.6365 208.655 26.7999 208.802 26.9281C208.956 27.0498 209.152 27.1107 209.389 27.1107C209.683 27.1107 209.94 27.0466 210.158 26.9185C210.382 26.7903 210.555 26.6205 210.677 26.409C210.798 26.1912 210.859 25.9509 210.859 25.6881V24.3521C210.859 24.0958 210.763 23.8875 210.571 23.7273C210.385 23.5607 210.135 23.4774 209.821 23.4774C209.533 23.4774 209.28 23.5543 209.062 23.7081C208.85 23.8555 208.693 24.0477 208.591 24.2848L207.687 23.833C207.784 23.5767 207.941 23.3524 208.158 23.1602C208.376 22.9616 208.629 22.8078 208.918 22.6988C209.213 22.5899 209.523 22.5354 209.85 22.5354C210.26 22.5354 210.622 22.6123 210.936 22.7661C211.257 22.9199 211.503 23.1346 211.676 23.4101C211.856 23.6792 211.945 23.9932 211.945 24.3521V27.8508H210.907V26.9089L211.128 26.9377C211.007 27.1492 210.85 27.3318 210.657 27.4856C210.472 27.6394 210.257 27.7579 210.013 27.8412C209.776 27.9245 209.51 27.9662 209.216 27.9662ZM213.215 27.8508V22.6508H214.254V23.6985L214.157 23.5447C214.273 23.2051 214.459 22.9616 214.715 22.8142C214.971 22.6604 215.279 22.5835 215.638 22.5835H215.955V23.5735H215.503C215.144 23.5735 214.853 23.6857 214.628 23.9099C214.411 24.1278 214.302 24.4418 214.302 24.8519V27.8508H213.215ZM219.041 27.9085C218.496 27.9085 218.073 27.7547 217.772 27.4471C217.471 27.1395 217.32 26.707 217.32 26.1495V23.6312H216.407V22.6508H216.551C216.795 22.6508 216.984 22.5803 217.119 22.4393C217.253 22.2983 217.32 22.1061 217.32 21.8626V21.4589H218.407V22.6508H219.589V23.6312H218.407V26.1015C218.407 26.2809 218.435 26.4347 218.493 26.5628C218.551 26.6846 218.644 26.7807 218.772 26.8512C218.9 26.9153 219.067 26.9473 219.272 26.9473C219.323 26.9473 219.381 26.9441 219.445 26.9377C219.509 26.9313 219.57 26.9249 219.627 26.9185V27.8508C219.538 27.8636 219.438 27.8765 219.329 27.8893C219.22 27.9021 219.124 27.9085 219.041 27.9085Z" fill="#89FFFE"/>
<path d="M47.494 28.8508L50.4819 20.6669H51.4267L54.4146 28.8508H53.4919L52.7888 26.8515H49.1308L48.4168 28.8508H47.494ZM49.4164 26.0277H52.4812L50.8225 21.3261H51.0861L49.4164 26.0277ZM57.8289 28.9827C57.2796 28.9827 56.7853 28.8508 56.3459 28.5872C55.9065 28.3162 55.5587 27.9501 55.3023 27.4887C55.0533 27.02 54.9288 26.4927 54.9288 25.9068C54.9288 25.3136 55.0533 24.7864 55.3023 24.325C55.5587 23.8636 55.9029 23.5011 56.3349 23.2375C56.7743 22.9665 57.2723 22.831 57.8289 22.831C58.3342 22.831 58.7846 22.9409 59.1801 23.1606C59.5755 23.3803 59.8868 23.6769 60.1138 24.0504L59.982 24.281V20.5351H60.8059V28.8508H59.982V27.5326L60.1138 27.6535C59.9087 28.0782 59.6012 28.4078 59.1911 28.6421C58.7883 28.8691 58.3342 28.9827 57.8289 28.9827ZM57.8728 28.1588C58.2683 28.1588 58.6235 28.0599 58.9384 27.8622C59.2606 27.6644 59.5133 27.3971 59.6964 27.0603C59.8868 26.7161 59.982 26.3316 59.982 25.9068C59.982 25.4821 59.8868 25.1013 59.6964 24.7644C59.5133 24.4202 59.2606 24.1492 58.9384 23.9515C58.6235 23.7538 58.2683 23.6549 57.8728 23.6549C57.4847 23.6549 57.1332 23.7538 56.8183 23.9515C56.5034 24.1492 56.2544 24.4165 56.0713 24.7534C55.8955 25.0903 55.8076 25.4748 55.8076 25.9068C55.8076 26.3316 55.8955 26.7161 56.0713 27.0603C56.2544 27.3971 56.4997 27.6644 56.8073 27.8622C57.1222 28.0599 57.4774 28.1588 57.8728 28.1588ZM65.1559 28.9827C64.6066 28.9827 64.1123 28.8508 63.6729 28.5872C63.2335 28.3162 62.8856 27.9501 62.6293 27.4887C62.3803 27.02 62.2558 26.4927 62.2558 25.9068C62.2558 25.3136 62.3803 24.7864 62.6293 24.325C62.8856 23.8636 63.2298 23.5011 63.6619 23.2375C64.1013 22.9665 64.5993 22.831 65.1559 22.831C65.6612 22.831 66.1116 22.9409 66.507 23.1606C66.9025 23.3803 67.2137 23.6769 67.4408 24.0504L67.3089 24.281V20.5351H68.1328V28.8508H67.3089V27.5326L67.4408 27.6535C67.2357 28.0782 66.9281 28.4078 66.518 28.6421C66.1152 28.8691 65.6612 28.9827 65.1559 28.9827ZM65.1998 28.1588C65.5953 28.1588 65.9504 28.0599 66.2654 27.8622C66.5876 27.6644 66.8402 27.3971 67.0233 27.0603C67.2137 26.7161 67.3089 26.3316 67.3089 25.9068C67.3089 25.4821 67.2137 25.1013 67.0233 24.7644C66.8402 24.4202 66.5876 24.1492 66.2654 23.9515C65.9504 23.7538 65.5953 23.6549 65.1998 23.6549C64.8117 23.6549 64.4601 23.7538 64.1452 23.9515C63.8303 24.1492 63.5813 24.4165 63.3982 24.7534C63.2225 25.0903 63.1346 25.4748 63.1346 25.9068C63.1346 26.3316 63.2225 26.7161 63.3982 27.0603C63.5813 27.3971 63.8267 27.6644 64.1342 27.8622C64.4492 28.0599 64.8043 28.1588 65.1998 28.1588ZM72.5048 28.9827C71.9555 28.9827 71.4575 28.8508 71.0108 28.5872C70.5714 28.3162 70.2236 27.9464 69.9672 27.4777C69.7109 27.009 69.5828 26.4781 69.5828 25.8849C69.5828 25.2917 69.7073 24.768 69.9563 24.314C70.2052 23.8526 70.5421 23.4901 70.9669 23.2265C71.399 22.9628 71.8823 22.831 72.4169 22.831C72.8417 22.831 73.2188 22.9116 73.5484 23.0727C73.8852 23.2265 74.1709 23.4388 74.4052 23.7098C74.6396 23.9735 74.819 24.2737 74.9435 24.6106C75.068 24.9401 75.1302 25.2807 75.1302 25.6322C75.1302 25.7054 75.1266 25.7897 75.1192 25.8849C75.1119 25.9727 75.1009 26.0643 75.0863 26.1595H70.11V25.3905H74.6139L74.2185 25.7201C74.2844 25.3173 74.2368 24.9585 74.0757 24.6435C73.9219 24.3213 73.6985 24.0687 73.4056 23.8856C73.1126 23.6952 72.7831 23.6 72.4169 23.6C72.0507 23.6 71.7102 23.6952 71.3953 23.8856C71.0877 24.076 70.846 24.3433 70.6703 24.6875C70.4945 25.0244 70.4249 25.4271 70.4616 25.8958C70.4249 26.3645 70.4982 26.7747 70.6813 27.1262C70.8717 27.4704 71.128 27.7377 71.4502 27.9281C71.7798 28.1185 72.1313 28.2137 72.5048 28.2137C72.9369 28.2137 73.2994 28.1112 73.5923 27.9061C73.8852 27.7011 74.1233 27.4447 74.3063 27.1372L75.0094 27.5107C74.8922 27.7743 74.7128 28.0196 74.4711 28.2467C74.2294 28.4664 73.9402 28.6458 73.6033 28.7849C73.2737 28.9167 72.9076 28.9827 72.5048 28.9827ZM79.2412 28.9827C78.692 28.9827 78.1976 28.8508 77.7582 28.5872C77.3188 28.3162 76.971 27.9501 76.7146 27.4887C76.4657 27.02 76.3412 26.4927 76.3412 25.9068C76.3412 25.3136 76.4657 24.7864 76.7146 24.325C76.971 23.8636 77.3152 23.5011 77.7472 23.2375C78.1866 22.9665 78.6846 22.831 79.2412 22.831C79.7465 22.831 80.1969 22.9409 80.5924 23.1606C80.9878 23.3803 81.2991 23.6769 81.5261 24.0504L81.3943 24.281V20.5351H82.2182V28.8508H81.3943V27.5326L81.5261 27.6535C81.3211 28.0782 81.0135 28.4078 80.6034 28.6421C80.2006 28.8691 79.7465 28.9827 79.2412 28.9827ZM79.2852 28.1588C79.6806 28.1588 80.0358 28.0599 80.3507 27.8622C80.6729 27.6644 80.9256 27.3971 81.1087 27.0603C81.2991 26.7161 81.3943 26.3316 81.3943 25.9068C81.3943 25.4821 81.2991 25.1013 81.1087 24.7644C80.9256 24.4202 80.6729 24.1492 80.3507 23.9515C80.0358 23.7538 79.6806 23.6549 79.2852 23.6549C78.897 23.6549 78.5455 23.7538 78.2306 23.9515C77.9157 24.1492 77.6667 24.4165 77.4836 24.7534C77.3078 25.0903 77.22 25.4748 77.22 25.9068C77.22 26.3316 77.3078 26.7161 77.4836 27.0603C77.6667 27.3971 77.912 27.6644 78.2196 27.8622C78.5345 28.0599 78.8897 28.1588 79.2852 28.1588ZM88.0283 28.9167C87.501 28.9167 87.0946 28.7629 86.809 28.4554C86.5234 28.1478 86.3806 27.7084 86.3806 27.1372V23.7867H85.293V22.9628H85.5677C85.8167 22.9628 86.0144 22.8823 86.1609 22.7212C86.3073 22.5527 86.3806 22.344 86.3806 22.095V21.6007H87.2044V22.9628H88.5007V23.7867H87.2044V27.1372C87.2044 27.3349 87.2337 27.5107 87.2923 27.6644C87.3509 27.8109 87.4498 27.9281 87.5889 28.016C87.7354 28.1038 87.9295 28.1478 88.1711 28.1478C88.2297 28.1478 88.2993 28.1441 88.3799 28.1368C88.4604 28.1295 88.53 28.1222 88.5886 28.1148V28.8508C88.5007 28.8728 88.4018 28.8874 88.292 28.8948C88.1821 28.9094 88.0942 28.9167 88.0283 28.9167ZM92.578 28.9827C92.0214 28.9827 91.5161 28.8508 91.062 28.5872C90.608 28.3162 90.2455 27.9501 89.9745 27.4887C89.7108 27.02 89.579 26.489 89.579 25.8958C89.579 25.31 89.7108 24.7864 89.9745 24.325C90.2381 23.8636 90.5933 23.5011 91.04 23.2375C91.4941 22.9665 92.0067 22.831 92.578 22.831C93.1492 22.831 93.6582 22.9628 94.1049 23.2265C94.5589 23.4901 94.9141 23.8526 95.1704 24.314C95.4341 24.7754 95.5659 25.3027 95.5659 25.8958C95.5659 26.4964 95.4304 27.031 95.1594 27.4997C94.8885 27.961 94.526 28.3235 94.0719 28.5872C93.6252 28.8508 93.1272 28.9827 92.578 28.9827ZM92.578 28.1588C92.9734 28.1588 93.3286 28.0599 93.6435 27.8622C93.9657 27.6644 94.2184 27.3935 94.4015 27.0493C94.5919 26.7051 94.6871 26.3206 94.6871 25.8958C94.6871 25.4711 94.5919 25.0903 94.4015 24.7534C94.2184 24.4165 93.9657 24.1492 93.6435 23.9515C93.3286 23.7538 92.9734 23.6549 92.578 23.6549C92.1825 23.6549 91.8236 23.7538 91.5014 23.9515C91.1865 24.1492 90.9339 24.4165 90.7434 24.7534C90.553 25.0903 90.4578 25.4711 90.4578 25.8958C90.4578 26.3206 90.553 26.7051 90.7434 27.0493C90.9339 27.3935 91.1865 27.6644 91.5014 27.8622C91.8236 28.0599 92.1825 28.1588 92.578 28.1588ZM101.577 28.9827C100.998 28.9827 100.489 28.8472 100.05 28.5762C99.6105 28.3052 99.2663 27.9391 99.0174 27.4777C98.7684 27.009 98.6439 26.4817 98.6439 25.8958C98.6439 25.31 98.7684 24.7864 99.0174 24.325C99.2663 23.8636 99.6105 23.5011 100.05 23.2375C100.489 22.9665 100.998 22.831 101.577 22.831C101.943 22.831 102.287 22.8969 102.609 23.0287C102.932 23.1606 103.217 23.34 103.466 23.567C103.715 23.7867 103.902 24.043 104.027 24.336L103.28 24.7204C103.133 24.4055 102.91 24.1492 102.609 23.9515C102.309 23.7538 101.965 23.6549 101.577 23.6549C101.189 23.6549 100.837 23.7538 100.522 23.9515C100.215 24.1419 99.9694 24.4092 99.7863 24.7534C99.6105 25.0903 99.5227 25.4748 99.5227 25.9068C99.5227 26.3316 99.6105 26.7161 99.7863 27.0603C99.9694 27.3971 100.215 27.6644 100.522 27.8622C100.837 28.0599 101.189 28.1588 101.577 28.1588C101.965 28.1588 102.306 28.0599 102.598 27.8622C102.899 27.6644 103.126 27.4008 103.28 27.0712L104.027 27.4777C103.902 27.7633 103.715 28.0196 103.466 28.2467C103.217 28.4737 102.932 28.6531 102.609 28.7849C102.287 28.9167 101.943 28.9827 101.577 28.9827ZM107.068 28.9827C106.694 28.9827 106.361 28.9131 106.068 28.7739C105.775 28.6275 105.544 28.4297 105.376 28.1807C105.208 27.9317 105.123 27.6461 105.123 27.3239C105.123 27.0163 105.189 26.738 105.321 26.489C105.453 26.2327 105.658 26.0167 105.936 25.8409C106.215 25.6652 106.57 25.5407 107.002 25.4674L109.309 25.0829V25.8299L107.2 26.1815C106.775 26.2547 106.467 26.3902 106.277 26.5879C106.094 26.7856 106.002 27.02 106.002 27.2909C106.002 27.5546 106.105 27.778 106.31 27.961C106.522 28.1441 106.793 28.2357 107.123 28.2357C107.525 28.2357 107.877 28.1514 108.177 27.983C108.477 27.8072 108.712 27.5729 108.88 27.28C109.049 26.987 109.133 26.6611 109.133 26.3023V24.8083C109.133 24.4568 109.005 24.1712 108.748 23.9515C108.492 23.7318 108.159 23.6219 107.749 23.6219C107.39 23.6219 107.075 23.7135 106.804 23.8966C106.533 24.0723 106.332 24.303 106.2 24.5886L105.453 24.1822C105.563 23.9332 105.735 23.7062 105.969 23.5011C106.211 23.296 106.485 23.1349 106.793 23.0178C107.101 22.8933 107.419 22.831 107.749 22.831C108.181 22.831 108.562 22.9152 108.891 23.0837C109.228 23.2521 109.488 23.4865 109.671 23.7867C109.862 24.0796 109.957 24.4202 109.957 24.8083V28.8508H109.133V27.6754L109.254 27.7963C109.151 28.016 108.99 28.2174 108.77 28.4004C108.558 28.5762 108.305 28.719 108.012 28.8289C107.727 28.9314 107.412 28.9827 107.068 28.9827ZM111.651 28.8508V22.9628H112.475V23.9295L112.365 23.7867C112.505 23.5084 112.713 23.2887 112.992 23.1276C113.277 22.9665 113.621 22.8859 114.024 22.8859H114.398V23.7098H113.881C113.457 23.7098 113.116 23.8416 112.86 24.1053C112.603 24.3689 112.475 24.7424 112.475 25.2258V28.8508H111.651ZM117.615 28.9167C117.088 28.9167 116.681 28.7629 116.396 28.4554C116.11 28.1478 115.967 27.7084 115.967 27.1372V23.7867H114.88V22.9628H115.154C115.403 22.9628 115.601 22.8823 115.748 22.7212C115.894 22.5527 115.967 22.344 115.967 22.095V21.6007H116.791V22.9628H118.087V23.7867H116.791V27.1372C116.791 27.3349 116.821 27.5107 116.879 27.6644C116.938 27.8109 117.037 27.9281 117.176 28.016C117.322 28.1038 117.516 28.1478 117.758 28.1478C117.816 28.1478 117.886 28.1441 117.967 28.1368C118.047 28.1295 118.117 28.1222 118.175 28.1148V28.8508C118.087 28.8728 117.989 28.8874 117.879 28.8948C117.769 28.9094 117.681 28.9167 117.615 28.9167ZM119.941 26.5L119.886 20.6669H120.764L120.71 26.5H119.941ZM119.886 28.8508V27.6425H120.764V28.8508H119.886Z" fill="white"/>
<path fill-rule="evenodd" clip-rule="evenodd" d="M12.1712 17.7259C12.1022 17.45 11.8227 17.2822 11.5468 17.3512C11.2709 17.4202 11.1031 17.6997 11.1721 17.9756L11.8942 20.864L12.5662 23.6679C12.852 24.8602 13.0769 25.7987 13.3438 26.5278C13.6176 27.2756 13.9533 27.8562 14.492 28.3014C14.5384 28.3398 14.5858 28.3772 14.634 28.4134C15.1925 28.8335 15.8353 29.0246 16.6264 29.1166C17.3976 29.2062 18.3626 29.2062 19.5886 29.2062H19.9961C21.0568 29.2062 21.8919 29.2062 22.5646 29.1382C23.2536 29.0685 23.8206 28.9239 24.3308 28.6045C24.5728 28.4529 24.7976 28.2756 25.0014 28.0756C25.431 27.6539 25.7037 27.1362 25.9321 26.4824C26.155 25.8441 26.3496 25.0321 26.5968 24.0005L26.6112 23.9406C26.7603 23.3187 26.8832 22.806 26.9306 22.3907C26.9799 21.9597 26.9598 21.5493 26.7446 21.1745C26.6526 21.0143 26.5376 20.8684 26.4032 20.7415C26.0889 20.445 25.6945 20.3298 25.2638 20.2772C24.8489 20.2266 24.3218 20.2266 23.6822 20.2266L12.7964 20.2266L12.1712 17.7259ZM17.3358 26.0895C17.3358 25.8052 17.5664 25.5746 17.8508 25.5746H21.9702C22.2546 25.5746 22.4851 25.8052 22.4851 26.0895C22.4851 26.3739 22.2546 26.6045 21.9702 26.6045H17.8508C17.5664 26.6045 17.3358 26.3739 17.3358 26.0895Z" fill="white"/>
<path d="M17.4533 31.5821C17.8524 31.5821 18.176 31.2585 18.176 30.8594C18.176 30.4602 17.8524 30.1367 17.4533 30.1367C17.0541 30.1367 16.7306 30.4602 16.7306 30.8594C16.7306 31.2585 17.0541 31.5821 17.4533 31.5821Z" fill="white"/>
<path d="M21.7895 31.5821C22.1886 31.5821 22.5122 31.2585 22.5122 30.8594C22.5122 30.4602 22.1886 30.1367 21.7895 30.1367C21.3904 30.1367 21.0668 30.4602 21.0668 30.8594C21.0668 31.2585 21.3904 31.5821 21.7895 31.5821Z" fill="white"/>
<rect x="23.3434" y="10.9851" width="13.0448" height="13.0448" rx="6.52239" fill="#4A1DFC"/>
<path d="M30.3707 19.7705C30.0466 19.7705 29.7445 19.7128 29.4644 19.5975C29.1843 19.4821 28.9426 19.3201 28.7394 19.1114C28.5362 18.8972 28.3851 18.6445 28.2863 18.3534L28.9701 18.0733C29.0854 18.3809 29.2667 18.6198 29.5139 18.7901C29.761 18.9603 30.0466 19.0455 30.3707 19.0455C30.6234 19.0455 30.8485 18.996 31.0463 18.8972C31.244 18.7983 31.3978 18.6555 31.5076 18.4688C31.623 18.282 31.6807 18.0568 31.6807 17.7932C31.6807 17.524 31.623 17.2989 31.5076 17.1176C31.3978 16.9309 31.244 16.788 31.0463 16.6892C30.8485 16.5903 30.6206 16.5409 30.3625 16.5409C30.2801 16.5409 30.1894 16.5464 30.0906 16.5574C29.9972 16.5683 29.9176 16.5848 29.8516 16.6068L29.6786 16.236L31.3182 14.234H28.5993V13.5337H32.2327V14.2093L30.6673 16.1372L30.6179 15.923C30.9859 15.934 31.3099 16.0191 31.59 16.1784C31.8702 16.3377 32.0899 16.5546 32.2491 16.8292C32.4084 17.0984 32.4881 17.4142 32.4881 17.7767C32.4881 18.1502 32.3974 18.488 32.2162 18.7901C32.0349 19.0922 31.785 19.3311 31.4665 19.5069C31.1479 19.6826 30.7826 19.7705 30.3707 19.7705Z" fill="white"/>
<defs>
<filter id="filter0_b_1369_4032" x="-43.9403" y="-43.9403" width="317.881" height="137.313" filterUnits="userSpaceOnUse" color-interpolation-filters="sRGB">
<feFlood flood-opacity="0" result="BackgroundImageFix"/>
<feGaussianBlur in="BackgroundImageFix" stdDeviation="21.9701"/>
<feComposite in2="SourceAlpha" operator="in" result="effect1_backgroundBlur_1369_4032"/>
<feBlend mode="normal" in="SourceGraphic" in2="effect1_backgroundBlur_1369_4032" result="shape"/>
</filter>
<linearGradient id="paint0_linear_1369_4032" x1="230" y1="-2.39195e-05" x2="1.27792e-06" y2="49.4328" gradientUnits="userSpaceOnUse">
<stop offset="0.208333" stop-color="#484849"/>
<stop offset="1" stop-color="#A8A0B1"/>
</linearGradient>
</defs>
</svg>
