<svg width="114" height="23" viewBox="0 0 114 23" fill="none" xmlns="http://www.w3.org/2000/svg">
<path fill-rule="evenodd" clip-rule="evenodd" d="M13.0277 0.0118141H9.39636V5.99095C8.54097 5.00653 7.33858 4.51432 5.78918 4.51432C4.19137 4.51432 2.82759 5.13564 1.69782 6.37826C0.568056 7.60475 0.00317383 9.11366 0.00317383 10.905C0.00317383 12.6963 0.568056 14.2133 1.69782 15.4559C2.82759 16.6824 4.19137 17.2956 5.78918 17.2956C7.33858 17.2956 8.54097 16.8034 9.39636 15.819V16.9567H13.0277V0.0118141ZM6.51546 13.8582C5.66007 13.8582 4.96607 13.592 4.43347 13.0594C3.90086 12.5268 3.63456 11.8087 3.63456 10.905C3.63456 10.0012 3.90086 9.2831 4.43347 8.75055C4.96607 8.218 5.66007 7.95172 6.51546 7.95172C7.37086 7.95172 8.06485 8.218 8.59746 8.75055C9.13006 9.2831 9.39636 10.0012 9.39636 10.905C9.39636 11.8087 9.13006 12.5268 8.59746 13.0594C8.06485 13.592 7.37086 13.8582 6.51546 13.8582ZM29.2557 17.2956C31.0472 17.2956 32.5643 16.6824 33.8071 15.4559C35.0498 14.2133 35.6712 12.6963 35.6712 10.905C35.6712 9.11366 35.0498 7.60475 33.8071 6.37826C32.5643 5.13564 31.0472 4.51432 29.2557 4.51432C27.4642 4.51432 25.9471 5.13564 24.7044 6.37826C23.4616 7.60475 22.8403 9.11366 22.8403 10.905C22.8403 12.6963 23.4616 14.2133 24.7044 15.4559C25.9471 16.6824 27.4642 17.2956 29.2557 17.2956ZM29.2557 13.7614C28.4649 13.7614 27.8032 13.4951 27.2706 12.9626C26.738 12.43 26.4717 11.7442 26.4717 10.905C26.4717 10.0658 26.738 9.37993 27.2706 8.84738C27.8032 8.31482 28.4649 8.04855 29.2557 8.04855C30.0466 8.04855 30.7083 8.31482 31.2409 8.84738C31.7735 9.37993 32.0398 10.0658 32.0398 10.905C32.0398 11.7442 31.7735 12.43 31.2409 12.9626C30.7083 13.4951 30.0466 13.7614 29.2557 13.7614ZM44.5377 4.51432C46.1355 4.51432 47.4993 5.13564 48.6291 6.37826C49.7588 7.60475 50.3237 9.11366 50.3237 10.905C50.3237 12.6963 49.7588 14.2133 48.6291 15.4559C47.4993 16.6824 46.1355 17.2956 44.5377 17.2956C42.9883 17.2956 41.7859 16.8034 40.9305 15.819V21.7981H37.2991V4.85322H40.9305V5.99095C41.7859 5.00653 42.9883 4.51432 44.5377 4.51432ZM41.7294 13.0594C42.2782 13.592 42.9722 13.8582 43.8114 13.8582C44.6507 13.8582 45.3366 13.592 45.8692 13.0594C46.418 12.5268 46.6923 11.8087 46.6923 10.905C46.6923 10.0012 46.418 9.2831 45.8692 8.75055C45.3366 8.218 44.6507 7.95172 43.8114 7.95172C42.9722 7.95172 42.2782 8.218 41.7294 8.75055C41.1968 9.2831 40.9305 10.0012 40.9305 10.905C40.9305 11.8087 41.1968 12.5268 41.7294 13.0594ZM18.4344 5.32282C16.4901 6.16141 15.2659 7.88849 15.2659 9.51573V16.9567H18.8973V11.4859C18.8973 10.3886 19.2765 9.622 20.0351 9.18628C20.8098 8.73441 21.641 8.5811 22.5287 8.72634V4.61115C22.4392 4.61115 22.3437 4.60965 22.2421 4.60805H22.2421H22.2421C21.4097 4.59497 20.1673 4.57544 18.4344 5.32282ZM55.1252 5.32328C53.1809 6.16186 51.9566 7.88894 51.9566 9.51618V16.9572H55.588V11.4864C55.588 10.389 55.9673 9.62246 56.7259 9.18673C57.5006 8.73487 58.3318 8.58155 59.2194 8.7268V4.6116C59.1299 4.6116 59.0345 4.6101 58.9329 4.60851C58.1004 4.59542 56.858 4.57589 55.1252 5.32328Z" fill="#4A1DFC"/>
<path d="M65.9071 17.5625V8.9368H69.0448C69.6237 8.9368 70.1332 9.04486 70.5731 9.26098C71.0131 9.46939 71.3566 9.77814 71.6036 10.1872C71.8583 10.5886 71.9857 11.071 71.9857 11.6345C71.9857 12.2288 71.8351 12.7383 71.5341 13.1628C71.2408 13.5873 70.8433 13.8961 70.3416 14.0891L72.333 17.5625H70.7815L68.6627 13.7996L69.5542 14.3206H67.2734V17.5625H65.9071ZM67.2734 13.1049H69.068C69.3844 13.1049 69.6585 13.0432 69.89 12.9197C70.1216 12.7962 70.2991 12.6264 70.4226 12.4102C70.5538 12.1864 70.6194 11.924 70.6194 11.6229C70.6194 11.3219 70.5538 11.0633 70.4226 10.8472C70.2991 10.6233 70.1216 10.4535 69.89 10.3378C69.6585 10.2143 69.3844 10.1525 69.068 10.1525H67.2734V13.1049ZM75.9456 17.7014C75.3204 17.7014 74.7647 17.5586 74.2784 17.273C73.7998 16.9797 73.4255 16.5861 73.1553 16.0921C72.8852 15.5904 72.7501 15.0308 72.7501 14.4133C72.7501 13.7803 72.8852 13.2207 73.1553 12.7344C73.4332 12.2481 73.8037 11.8661 74.2668 11.5882C74.7299 11.3026 75.2548 11.1598 75.8414 11.1598C76.3123 11.1598 76.733 11.2408 77.1035 11.4029C77.474 11.565 77.7866 11.7889 78.0413 12.0745C78.296 12.3523 78.489 12.6727 78.6202 13.0355C78.7591 13.3982 78.8286 13.7842 78.8286 14.1933C78.8286 14.2936 78.8247 14.3978 78.817 14.5059C78.8093 14.6139 78.7939 14.7143 78.7707 14.8069H73.7805V13.7649H78.0297L77.4045 14.2396C77.4817 13.8614 77.4547 13.5256 77.3234 13.2323C77.1999 12.9313 77.007 12.6958 76.7445 12.526C76.4898 12.3485 76.1888 12.2597 75.8414 12.2597C75.4941 12.2597 75.1853 12.3485 74.9152 12.526C74.645 12.6958 74.4366 12.9428 74.29 13.267C74.1433 13.5835 74.0854 13.9694 74.1163 14.4248C74.0777 14.8494 74.1356 15.2199 74.29 15.5363C74.4521 15.8528 74.6759 16.0998 74.9615 16.2773C75.2548 16.4549 75.5867 16.5436 75.9572 16.5436C76.3354 16.5436 76.6558 16.4587 76.9182 16.2889C77.1884 16.1191 77.4006 15.8991 77.555 15.629L78.6202 16.15C78.4967 16.4433 78.3037 16.7096 78.0413 16.9489C77.7866 17.1804 77.4778 17.3657 77.115 17.5046C76.76 17.6358 76.3702 17.7014 75.9456 17.7014ZM82.8147 17.632C82.1586 17.632 81.6492 17.4467 81.2864 17.0762C80.9236 16.7057 80.7422 16.1847 80.7422 15.5132V12.4797H79.6423V11.2987H79.816C80.1093 11.2987 80.337 11.2138 80.4991 11.044C80.6612 10.8742 80.7422 10.6426 80.7422 10.3493V9.86305H82.0506V11.2987H83.4747V12.4797H82.0506V15.4553C82.0506 15.6714 82.0853 15.8567 82.1548 16.011C82.2242 16.1577 82.3362 16.2735 82.4905 16.3584C82.6449 16.4356 82.8456 16.4742 83.0926 16.4742C83.1544 16.4742 83.2238 16.4703 83.301 16.4626C83.3782 16.4549 83.4515 16.4471 83.521 16.4394V17.5625C83.4129 17.5779 83.2933 17.5934 83.1621 17.6088C83.0309 17.6242 82.9151 17.632 82.8147 17.632ZM86.6169 17.7014C86.1923 17.7014 85.818 17.6281 85.4938 17.4815C85.1773 17.3271 84.9303 17.1187 84.7528 16.8562C84.5753 16.5861 84.4865 16.2696 84.4865 15.9068C84.4865 15.5672 84.5598 15.2623 84.7065 14.9922C84.8609 14.722 85.0963 14.4943 85.4128 14.309C85.7292 14.1238 86.1267 13.9926 86.6053 13.9154L88.782 13.5565V14.5869L86.86 14.9227C86.5127 14.9844 86.258 15.0964 86.0959 15.2585C85.9338 15.4128 85.8527 15.6135 85.8527 15.8605C85.8527 16.0998 85.9415 16.2966 86.119 16.451C86.3043 16.5977 86.5397 16.671 86.8253 16.671C87.1803 16.671 87.4891 16.5938 87.7515 16.4394C88.0217 16.285 88.2301 16.0805 88.3768 15.8258C88.5234 15.5633 88.5967 15.2739 88.5967 14.9574V13.3481C88.5967 13.0393 88.481 12.7885 88.2494 12.5955C88.0255 12.3948 87.7245 12.2945 87.3463 12.2945C86.999 12.2945 86.6941 12.3871 86.4316 12.5723C86.1769 12.7499 85.9878 12.9814 85.8643 13.267L84.776 12.7228C84.8917 12.4141 85.0808 12.1439 85.3433 11.9124C85.6057 11.6731 85.9106 11.4878 86.258 11.3566C86.613 11.2254 86.9874 11.1598 87.381 11.1598C87.875 11.1598 88.3111 11.2524 88.6894 11.4377C89.0753 11.6229 89.3725 11.8815 89.5809 12.2134C89.797 12.5376 89.9051 12.9158 89.9051 13.3481V17.5625H88.6546V16.4278L88.9209 16.4626C88.7743 16.7173 88.5852 16.9373 88.3536 17.1225C88.1298 17.3078 87.8712 17.4506 87.5779 17.5509C87.2923 17.6513 86.9719 17.7014 86.6169 17.7014ZM91.4348 17.5625V11.2987H92.7432V17.5625H91.4348ZM91.4348 10.442V8.9368H92.7432V10.442H91.4348ZM94.2728 17.5625V8.79786H95.5811V17.5625H94.2728ZM100.052 17.7014C99.4264 17.7014 98.8707 17.5586 98.3844 17.273C97.9059 16.9797 97.5315 16.5861 97.2613 16.0921C96.9912 15.5904 96.8561 15.0308 96.8561 14.4133C96.8561 13.7803 96.9912 13.2207 97.2613 12.7344C97.5392 12.2481 97.9097 11.8661 98.3728 11.5882C98.836 11.3026 99.3608 11.1598 99.9475 11.1598C100.418 11.1598 100.839 11.2408 101.209 11.4029C101.58 11.565 101.893 11.7889 102.147 12.0745C102.402 12.3523 102.595 12.6727 102.726 13.0355C102.865 13.3982 102.935 13.7842 102.935 14.1933C102.935 14.2936 102.931 14.3978 102.923 14.5059C102.915 14.6139 102.9 14.7143 102.877 14.8069H97.8866V13.7649H102.136L101.511 14.2396C101.588 13.8614 101.561 13.5256 101.429 13.2323C101.306 12.9313 101.113 12.6958 100.851 12.526C100.596 12.3485 100.295 12.2597 99.9475 12.2597C99.6001 12.2597 99.2914 12.3485 99.0212 12.526C98.7511 12.6958 98.5426 12.9428 98.396 13.267C98.2493 13.5835 98.1914 13.9694 98.2223 14.4248C98.1837 14.8494 98.2416 15.2199 98.396 15.5363C98.5581 15.8528 98.7819 16.0998 99.0675 16.2773C99.3608 16.4549 99.6927 16.5436 100.063 16.5436C100.441 16.5436 100.762 16.4587 101.024 16.2889C101.294 16.1191 101.507 15.8991 101.661 15.629L102.726 16.15C102.603 16.4433 102.41 16.7096 102.147 16.9489C101.893 17.1804 101.584 17.3657 101.221 17.5046C100.866 17.6358 100.476 17.7014 100.052 17.7014ZM104.211 17.5625V11.2987H105.462V12.5608L105.346 12.3755C105.485 11.9664 105.709 11.6731 106.018 11.4956C106.326 11.3103 106.697 11.2177 107.129 11.2177H107.511V12.4102H106.967C106.535 12.4102 106.184 12.5453 105.913 12.8155C105.651 13.0779 105.52 13.4561 105.52 13.9501V17.5625H104.211ZM110.722 17.7014C110.081 17.7014 109.518 17.5432 109.031 17.2267C108.553 16.9103 108.217 16.4857 108.024 15.9531L109.031 15.4784C109.201 15.8335 109.433 16.1152 109.726 16.3236C110.027 16.532 110.359 16.6363 110.722 16.6363C111.031 16.6363 111.282 16.5668 111.474 16.4278C111.667 16.2889 111.764 16.0998 111.764 15.8605C111.764 15.7061 111.721 15.5826 111.637 15.49C111.552 15.3897 111.444 15.3086 111.312 15.2469C111.189 15.1851 111.062 15.1388 110.93 15.1079L109.946 14.8301C109.406 14.6757 109.001 14.4441 108.73 14.1354C108.468 13.8189 108.337 13.4523 108.337 13.0355C108.337 12.6572 108.433 12.3292 108.626 12.0513C108.819 11.7657 109.086 11.5457 109.425 11.3914C109.765 11.237 110.147 11.1598 110.571 11.1598C111.143 11.1598 111.652 11.3026 112.1 11.5882C112.547 11.8661 112.864 12.2559 113.049 12.7576L112.042 13.2323C111.918 12.9313 111.721 12.692 111.451 12.5144C111.189 12.3369 110.892 12.2481 110.56 12.2481C110.274 12.2481 110.047 12.3176 109.877 12.4565C109.707 12.5878 109.622 12.7614 109.622 12.9776C109.622 13.1242 109.661 13.2477 109.738 13.3481C109.815 13.4407 109.915 13.5179 110.039 13.5796C110.162 13.6337 110.29 13.68 110.421 13.7186L111.44 14.0196C111.957 14.1663 112.354 14.3978 112.632 14.7143C112.91 15.023 113.049 15.3935 113.049 15.8258C113.049 16.1963 112.949 16.5243 112.748 16.8099C112.555 17.0878 112.285 17.3078 111.938 17.4699C111.59 17.6242 111.185 17.7014 110.722 17.7014Z" fill="#89898B"/>
</svg>
