<svg width="70" height="25" viewBox="0 0 70 25" fill="none" xmlns="http://www.w3.org/2000/svg">
<path fill-rule="evenodd" clip-rule="evenodd" d="M15.3973 0.0136719H11.1055V6.86881C10.0946 5.74016 8.67352 5.17584 6.84237 5.17584C4.95399 5.17584 3.34219 5.88818 2.00698 7.31286C0.671759 8.71905 0.00415039 10.449 0.00415039 12.5028C0.00415039 14.5565 0.671759 16.2958 2.00698 17.7205C3.34219 19.1266 4.95399 19.8297 6.84237 19.8297C8.67352 19.8297 10.0946 19.2654 11.1055 18.1368V19.4412H15.3973V0.0136719ZM7.70072 15.8887C6.68977 15.8887 5.86957 15.5834 5.24011 14.9729C4.61065 14.3623 4.29592 13.5389 4.29592 12.5028C4.29592 11.4667 4.61065 10.6433 5.24011 10.0327C5.86957 9.42214 6.68977 9.11685 7.70072 9.11685C8.71167 9.11685 9.53188 9.42214 10.1613 10.0327C10.7908 10.6433 11.1055 11.4667 11.1055 12.5028C11.1055 13.5389 10.7908 14.3623 10.1613 14.9729C9.53188 15.5834 8.71167 15.8887 7.70072 15.8887ZM34.5764 19.8297C36.6937 19.8297 38.4867 19.1266 39.9554 17.7205C41.4241 16.2958 42.1585 14.5565 42.1585 12.5028C42.1585 10.449 41.4241 8.71905 39.9554 7.31286C38.4867 5.88818 36.6937 5.17584 34.5764 5.17584C32.4591 5.17584 30.6661 5.88818 29.1974 7.31286C27.7286 8.71905 26.9943 10.449 26.9943 12.5028C26.9943 14.5565 27.7286 16.2958 29.1974 17.7205C30.6661 19.1266 32.4591 19.8297 34.5764 19.8297ZM34.5764 15.7777C33.6417 15.7777 32.8597 15.4724 32.2302 14.8618C31.6008 14.2513 31.286 13.4649 31.286 12.5028C31.286 11.5407 31.6008 10.7543 32.2302 10.1437C32.8597 9.53315 33.6417 9.22786 34.5764 9.22786C35.511 9.22786 36.2931 9.53315 36.9226 10.1437C37.552 10.7543 37.8667 11.5407 37.8667 12.5028C37.8667 13.4649 37.552 14.2513 36.9226 14.8618C36.2931 15.4724 35.511 15.7777 34.5764 15.7777ZM52.6375 5.17584C54.5258 5.17584 56.1377 5.88818 57.4729 7.31286C58.8081 8.71905 59.4757 10.449 59.4757 12.5028C59.4757 14.5565 58.8081 16.2958 57.4729 17.7205C56.1377 19.1266 54.5258 19.8297 52.6375 19.8297C50.8063 19.8297 49.3853 19.2654 48.3743 18.1368V24.9919H44.0825V5.56439H48.3743V6.86881C49.3853 5.74016 50.8063 5.17584 52.6375 5.17584ZM49.3185 14.9729C49.967 15.5834 50.7872 15.8887 51.7791 15.8887C52.771 15.8887 53.5817 15.5834 54.2111 14.9729C54.8597 14.3623 55.1839 13.5389 55.1839 12.5028C55.1839 11.4667 54.8597 10.6433 54.2111 10.0327C53.5817 9.42214 52.771 9.11685 51.7791 9.11685C50.7872 9.11685 49.967 9.42214 49.3185 10.0327C48.689 10.6433 48.3743 11.4667 48.3743 12.5028C48.3743 13.5389 48.689 14.3623 49.3185 14.9729ZM21.7872 6.10279C19.4893 7.06423 18.0424 9.04435 18.0424 10.91V19.4412H22.3342V13.1689C22.3342 11.9107 22.7825 11.0318 23.679 10.5323C24.5945 10.0142 25.5769 9.83844 26.626 10.005V5.28685C26.5202 5.28685 26.4074 5.28513 26.2873 5.2833C25.3035 5.2683 23.8352 5.24591 21.7872 6.10279ZM65.1503 6.1032C62.8524 7.06464 61.4056 9.04475 61.4056 10.9104V19.4416H65.6973V13.1693C65.6973 11.9111 66.1456 11.0322 67.0421 10.5327C67.9577 10.0146 68.94 9.83884 69.9891 10.0054V5.28725C69.8833 5.28725 69.7705 5.28553 69.6505 5.2837C68.6666 5.2687 67.1983 5.24631 65.1503 6.1032Z" fill="#4A1DFC"/>
</svg>
