<svg width="16" height="16" viewBox="0 0 16 16" fill="none" xmlns="http://www.w3.org/2000/svg">
<path d="M13.3996 4.62683C13.3996 4.98683 13.2063 5.3135 12.8996 5.48016L11.7396 6.10683L10.7529 6.6335L8.70628 7.74016C8.48628 7.86016 8.24628 7.92016 7.99961 7.92016C7.75294 7.92016 7.51294 7.86016 7.29294 7.74016L3.09961 5.48016C2.79294 5.3135 2.59961 4.98683 2.59961 4.62683C2.59961 4.26683 2.79294 3.94016 3.09961 3.7735L4.41294 3.06683L5.45961 2.50016L7.29294 1.5135C7.73294 1.2735 8.26628 1.2735 8.70628 1.5135L12.8996 3.7735C13.2063 3.94016 13.3996 4.26683 13.3996 4.62683Z" fill="#25A8C0"/>
<path d="M6.59917 8.52676L2.69917 6.58009C2.39917 6.42676 2.0525 6.44676 1.76583 6.62009C1.47917 6.79343 1.3125 7.10009 1.3125 7.43343V11.1201C1.3125 11.7601 1.66583 12.3334 2.23917 12.6201L6.13917 14.5668C6.2725 14.6334 6.41917 14.6668 6.56583 14.6668C6.73917 14.6668 6.9125 14.6201 7.06583 14.5201C7.3525 14.3468 7.51917 14.0401 7.51917 13.7068V10.0201C7.52583 9.38676 7.1725 8.81343 6.59917 8.52676Z" fill="#25A8C0"/>
<path d="M14.686 7.43325V11.1199C14.686 11.7533 14.3327 12.3266 13.7593 12.6133L9.85932 14.5666C9.72599 14.6333 9.57932 14.6666 9.43266 14.6666C9.25932 14.6666 9.08599 14.6199 8.92599 14.5199C8.64599 14.3466 8.47266 14.0399 8.47266 13.7066V10.0266C8.47266 9.38659 8.82599 8.81325 9.39932 8.52659L10.8327 7.81325L11.8327 7.31325L13.2993 6.57992C13.5993 6.42659 13.946 6.43992 14.2327 6.61992C14.5127 6.79325 14.686 7.09992 14.686 7.43325Z" fill="#25A8C0"/>
<path d="M11.7407 6.10667L10.7541 6.63333L4.41406 3.06667L5.46073 2.5L11.5807 5.95333C11.6474 5.99333 11.7007 6.04667 11.7407 6.10667Z" fill="#25A8C0"/>
<path d="M11.834 7.31348V8.82681C11.834 9.10014 11.6073 9.32681 11.334 9.32681C11.0607 9.32681 10.834 9.10014 10.834 8.82681V7.81348L11.834 7.31348Z" fill="#25A8C0"/>
</svg>
