<svg width="16" height="16" viewBox="0 0 16 16" fill="none" xmlns="http://www.w3.org/2000/svg">
<path d="M3.00065 3.99998C2.08018 3.99998 1.33398 4.74617 1.33398 5.66665C1.33398 6.12089 1.5157 6.53269 1.81041 6.83331H14.1909C14.4856 6.53269 14.6673 6.12089 14.6673 5.66665C14.6673 4.74617 13.9211 3.99998 13.0007 3.99998H8.00065H3.00065Z" fill="#314EB5"/>
<path d="M8.00065 2.66665C8.00065 1.93027 8.5976 1.33331 9.33398 1.33331C10.0704 1.33331 10.6673 1.93027 10.6673 2.66665C10.6673 3.40303 10.0704 3.99998 9.33398 3.99998H8.00065V2.66665Z" fill="#314EB5"/>
<path d="M8.00065 2.66665C8.00065 1.93027 7.4037 1.33331 6.66732 1.33331C5.93094 1.33331 5.33398 1.93027 5.33398 2.66665C5.33398 3.40303 5.93094 3.99998 6.66732 3.99998H8.00065V2.66665Z" fill="#314EB5"/>
<path d="M7.50065 7.83331H1.98592L1.98799 7.91407C1.99375 8.1379 2.00065 8.40531 2.00065 8.76188C2.00065 10.389 2.00065 11.2025 2.25438 11.8443C2.59269 12.6999 3.24161 13.3797 4.05837 13.7342C4.67094 14 5.4475 14 7.00063 14H7.50065V7.83331Z" fill="#314EB5"/>
<path d="M8.50065 14H9.00065C10.5538 14 11.3304 14 11.9429 13.7342C12.7597 13.3797 13.4086 12.6999 13.7469 11.8443C14.0006 11.2025 14.0006 10.389 14.0006 8.76188C14.0006 8.36141 14.0006 8.07342 13.9969 7.83331H8.50065V14Z" fill="#314EB5"/>
</svg>
