<svg width="16" height="16" viewBox="0 0 16 16" fill="none" xmlns="http://www.w3.org/2000/svg">
<path d="M4.63749 1.5C4.34895 1.49997 4.08439 1.49994 3.86918 1.52887C3.6322 1.56073 3.38171 1.6357 3.1757 1.84171C2.96968 2.04773 2.89472 2.29821 2.86286 2.5352C2.83392 2.75041 2.83395 3.01496 2.83399 3.30351L2.83399 14C2.83399 14.2761 3.05785 14.5 3.33399 14.5C3.61013 14.5 3.83399 14.2761 3.83399 14L3.83399 9.83334H11.4659C12.4056 9.83334 13.1673 9.07161 13.1673 8.13196C13.1673 7.57171 12.8915 7.04736 12.4298 6.72996L12.2423 6.60106C11.587 6.1505 11.587 5.18284 12.2423 4.73228L12.4298 4.60338C12.8915 4.28598 13.1673 3.76164 13.1673 3.20138C13.1673 2.26174 12.4056 1.5 11.4659 1.5L4.63749 1.5Z" fill="#73CB1A"/>
</svg>
