<svg width="16" height="16" viewBox="0 0 16 16" fill="none" xmlns="http://www.w3.org/2000/svg">
<path d="M11.0901 14.9792C13.2145 15.3867 15.0796 13.5216 14.6722 11.3972L13.5024 5.29782C13.2481 3.97193 12.2445 2.91156 10.9404 2.57468C8.33667 1.90207 5.95704 4.31677 6.71951 6.90949C6.74056 6.98109 6.67404 7.04762 6.60244 7.02656C4.0097 6.26411 1.59499 8.64373 2.2676 11.2475C2.60449 12.5516 3.66486 13.5552 4.99076 13.8095L11.0901 14.9792Z" fill="#25A8C0"/>
<path d="M5.11061 3.29636C5.30587 3.49162 5.62245 3.49162 5.81771 3.29636C6.01298 3.1011 6.01298 2.78452 5.81771 2.58926L4.8749 1.64645C4.67964 1.45118 4.36306 1.45118 4.1678 1.64645C3.97254 1.84171 3.97254 2.15829 4.1678 2.35355L5.11061 3.29636Z" fill="#25A8C0"/>
<path d="M5.34631 5.65338C5.15105 5.84865 4.83446 5.84865 4.6392 5.65338L3.69639 4.71058C3.50113 4.51531 3.50113 4.19873 3.69639 4.00347C3.89166 3.80821 4.20824 3.80821 4.4035 4.00347L5.34631 4.94628C5.54157 5.14154 5.54157 5.45812 5.34631 5.65338Z" fill="#25A8C0"/>
<path d="M2.28218 6.12479C2.47744 6.32005 2.79402 6.32005 2.98929 6.12479C3.18455 5.92953 3.18455 5.61294 2.98929 5.41768L2.04648 4.47487C1.85122 4.27961 1.53463 4.27961 1.33937 4.47487C1.14411 4.67014 1.14411 4.98672 1.33937 5.18198L2.28218 6.12479Z" fill="#25A8C0"/>
</svg>
