<svg width="16" height="16" viewBox="0 0 16 16" fill="none" xmlns="http://www.w3.org/2000/svg">
<path d="M14.9792 4.90956C15.3867 2.78516 13.5216 0.920082 11.3972 1.32751L5.29782 2.49727C3.97193 2.75156 2.91156 3.75519 2.57468 5.0593C1.90207 7.66302 4.31677 10.0427 6.90949 9.28019C6.98109 9.25913 7.04762 9.32565 7.02656 9.39725C6.26411 11.99 8.64373 14.4047 11.2475 13.7321C12.5516 13.3952 13.5552 12.3348 13.8095 11.0089L14.9792 4.90956Z" fill="#9D33B2"/>
<path d="M3.29636 10.8891C3.49162 10.6938 3.49162 10.3772 3.29636 10.182C3.1011 9.98672 2.78452 9.98672 2.58926 10.182L1.64645 11.1248C1.45118 11.3201 1.45118 11.6366 1.64645 11.8319C1.84171 12.0272 2.15829 12.0272 2.35355 11.8319L3.29636 10.8891Z" fill="#9D33B2"/>
<path d="M5.65338 10.6534C5.84865 10.8486 5.84865 11.1652 5.65338 11.3605L4.71058 12.3033C4.51531 12.4986 4.19873 12.4986 4.00347 12.3033C3.80821 12.108 3.80821 11.7915 4.00347 11.5962L4.94628 10.6534C5.14154 10.4581 5.45812 10.4581 5.65338 10.6534Z" fill="#9D33B2"/>
<path d="M6.12479 13.7175C6.32005 13.5223 6.32005 13.2057 6.12479 13.0104C5.92953 12.8151 5.61294 12.8151 5.41768 13.0104L4.47487 13.9532C4.27961 14.1485 4.27961 14.4651 4.47487 14.6603C4.67014 14.8556 4.98672 14.8556 5.18198 14.6603L6.12479 13.7175Z" fill="#9D33B2"/>
</svg>
