<svg width="16" height="16" viewBox="0 0 16 16" fill="none" xmlns="http://www.w3.org/2000/svg">
<path fill-rule="evenodd" clip-rule="evenodd" d="M8.00065 14.6666C11.6826 14.6666 14.6673 11.6819 14.6673 7.99998C14.6673 4.31808 11.6826 1.33331 8.00065 1.33331C4.31875 1.33331 1.33398 4.31808 1.33398 7.99998C1.33398 11.6819 4.31875 14.6666 8.00065 14.6666ZM11.7065 6.33349C11.8907 6.12776 11.8732 5.81166 11.6675 5.62746C11.4618 5.44327 11.1457 5.46073 10.9615 5.66647L8.71535 8.17525C8.26022 8.68361 7.95372 9.02416 7.69166 9.24442C7.44203 9.45424 7.2954 9.49998 7.16732 9.49998C7.03923 9.49998 6.89261 9.45424 6.64297 9.24442C6.38092 9.02416 6.07441 8.68361 5.61928 8.17525L5.03983 7.52804C4.85564 7.32231 4.53954 7.30484 4.3338 7.48904C4.12807 7.67323 4.11061 7.98933 4.2948 8.19507L4.899 8.86993C5.32291 9.34344 5.67648 9.73839 5.99955 10.0099C6.34131 10.2972 6.70994 10.5 7.16732 10.5C7.6247 10.5 7.99332 10.2972 8.33508 10.0099C8.65816 9.73839 9.01173 9.34344 9.43563 8.86993L11.7065 6.33349Z" fill="#0BDB6A"/>
</svg>
