<svg width="40" height="40" viewBox="0 0 40 40" fill="none" xmlns="http://www.w3.org/2000/svg">
<rect width="40" height="40" rx="10.4762" fill="#4A1DFC"/>
<path fill-rule="evenodd" clip-rule="evenodd" d="M19.2507 9.41187H15.3964V19.9489H19.2507V9.41187ZM19.2507 9.41187H19.2507V13.3106H19.2507C22.8751 13.3106 25.8133 16.2827 25.8133 19.9489L29.6676 19.9489V19.9325C29.6588 14.1206 24.9984 9.41187 19.2507 9.41187Z" fill="white"/>
<path fill-rule="evenodd" clip-rule="evenodd" d="M9.89868 25.4163C11.8175 28.4558 15.288 30.486 19.2507 30.486C23.2135 30.486 26.684 28.4558 28.6028 25.4162L25.2615 23.4629C24.01 25.3392 21.7859 26.5873 19.2508 26.5873C16.7156 26.5873 14.4915 25.3392 13.24 23.4629L9.89868 25.4163Z" fill="white"/>
</svg>
