<svg width="62" height="22" viewBox="0 0 62 22" fill="none" xmlns="http://www.w3.org/2000/svg">
<path fill-rule="evenodd" clip-rule="evenodd" d="M13.7496 0.0119629H9.97289V6.04448C9.08325 5.05127 7.83272 4.55467 6.22131 4.55467C4.55953 4.55467 3.14115 5.18153 1.96616 6.43525C0.79117 7.67269 0.203674 9.19507 0.203674 11.0024C0.203674 12.8097 0.79117 14.3402 1.96616 15.5939C3.14115 16.8314 4.55953 17.4501 6.22131 17.4501C7.83272 17.4501 9.08325 16.9535 9.97289 15.9603V17.1082H13.7496V0.0119629ZM6.97666 13.982C6.08702 13.982 5.36524 13.7134 4.81132 13.176C4.25739 12.6387 3.98043 11.9142 3.98043 11.0024C3.98043 10.0906 4.25739 9.36603 4.81132 8.82872C5.36524 8.29141 6.08702 8.02276 6.97666 8.02276C7.86629 8.02276 8.58807 8.29141 9.142 8.82872C9.69592 9.36603 9.97289 10.0906 9.97289 11.0024C9.97289 11.9142 9.69592 12.6387 9.142 13.176C8.58807 13.7134 7.86629 13.982 6.97666 13.982ZM30.6272 17.4501C32.4904 17.4501 34.0683 16.8314 35.3608 15.5939C36.6533 14.3402 37.2995 12.8097 37.2995 11.0024C37.2995 9.19507 36.6533 7.67269 35.3608 6.43525C34.0683 5.18153 32.4904 4.55467 30.6272 4.55467C28.764 4.55467 27.1862 5.18153 25.8937 6.43525C24.6012 7.67269 23.955 9.19507 23.955 11.0024C23.955 12.8097 24.6012 14.3402 25.8937 15.5939C27.1862 16.8314 28.764 17.4501 30.6272 17.4501ZM30.6272 13.8843C29.8047 13.8843 29.1165 13.6157 28.5626 13.0783C28.0087 12.541 27.7317 11.8491 27.7317 11.0024C27.7317 10.1557 28.0087 9.46372 28.5626 8.92641C29.1165 8.3891 29.8047 8.12045 30.6272 8.12045C31.4497 8.12045 32.1379 8.3891 32.6919 8.92641C33.2458 9.46372 33.5228 10.1557 33.5228 11.0024C33.5228 11.8491 33.2458 12.541 32.6919 13.0783C32.1379 13.6157 31.4497 13.8843 30.6272 13.8843ZM46.521 4.55467C48.1828 4.55467 49.6012 5.18153 50.7761 6.43525C51.9511 7.67269 52.5386 9.19507 52.5386 11.0024C52.5386 12.8097 51.9511 14.3402 50.7761 15.5939C49.6012 16.8314 48.1828 17.4501 46.521 17.4501C44.9096 17.4501 43.6591 16.9535 42.7694 15.9603V21.9928H38.9927V4.89659H42.7694V6.04448C43.6591 5.05127 44.9096 4.55467 46.521 4.55467ZM43.6003 13.176C44.171 13.7134 44.8928 13.982 45.7657 13.982C46.6385 13.982 47.3519 13.7134 47.9058 13.176C48.4765 12.6387 48.7619 11.9142 48.7619 11.0024C48.7619 10.0906 48.4765 9.36603 47.9058 8.82872C47.3519 8.29141 46.6385 8.02276 45.7657 8.02276C44.8928 8.02276 44.171 8.29141 43.6003 8.82872C43.0464 9.36603 42.7694 10.0906 42.7694 11.0024C42.7694 11.9142 43.0464 12.6387 43.6003 13.176ZM19.3727 5.37039C17.3506 6.21646 16.0774 7.95896 16.0774 9.60073V17.1082H19.8541V11.5885C19.8541 10.4814 20.2486 9.70796 21.0375 9.26834C21.8432 8.81244 22.7077 8.65776 23.6309 8.8043V4.65236C23.5378 4.65236 23.4385 4.65085 23.3329 4.64924C22.4671 4.63603 21.175 4.61633 19.3727 5.37039ZM57.5323 5.37081C55.5101 6.21688 54.2369 7.95938 54.2369 9.60115V17.1086H58.0137V11.589C58.0137 10.4818 58.4081 9.70838 59.1971 9.26876C60.0028 8.81286 60.8672 8.65818 61.7904 8.80472V4.65278C61.6973 4.65278 61.598 4.65127 61.4924 4.64966C60.6266 4.63646 59.3345 4.61675 57.5323 5.37081Z" fill="white"/>
</svg>
