<svg width="104" height="127" viewBox="0 0 104 127" fill="none" xmlns="http://www.w3.org/2000/svg">
<path fill-rule="evenodd" clip-rule="evenodd" d="M49.4972 8.82231C69.0067 8.84134 84.8244 24.6287 84.8926 44.1267V44.2533L71.7834 44.2533C71.7834 31.9254 61.7897 21.9318 49.4619 21.9318H49.4616V8.82231H49.4972ZM49.4615 8.82233H36.3521V44.2533H49.4615V8.82233Z" fill="white"/>
<path fill-rule="evenodd" clip-rule="evenodd" d="M12.2591 44.2533C12.2591 44.2533 12.2591 44.2533 12.2591 44.2533H25.3684C25.3684 44.2533 25.3684 44.2533 25.3684 44.2533L12.2591 44.2533ZM17.6525 62.6373C24.1789 72.8579 35.9832 79.6843 49.4616 79.6843C62.9401 79.6843 74.7444 72.8579 81.2708 62.6373L69.906 56.069C65.649 62.3781 58.0843 66.5748 49.4615 66.5748C40.8388 66.5748 33.2741 62.3781 29.017 56.0692L17.6525 62.6373ZM73.5546 44.2533L86.6642 44.2533L73.5546 44.2533C73.5546 44.2533 73.5546 44.2533 73.5546 44.2533Z" fill="white"/>
<path fill-rule="evenodd" clip-rule="evenodd" d="M22.7882 88.5981H16.4364V99.0519C14.9402 97.3308 12.837 96.4702 10.1269 96.4702C7.33212 96.4702 4.94666 97.5565 2.97053 99.729C0.99441 101.873 0.00634766 104.512 0.00634766 107.643C0.00634766 110.775 0.99441 113.428 2.97053 115.6C4.94666 117.744 7.33212 118.817 10.1269 118.817C12.837 118.817 14.9402 117.956 16.4364 116.235V118.224H22.7882V88.5981ZM11.3973 112.807C9.90109 112.807 8.68718 112.341 7.75558 111.41C6.82398 110.479 6.35818 109.223 6.35818 107.643C6.35818 106.063 6.82398 104.808 7.75558 103.877C8.68718 102.946 9.90109 102.48 11.3973 102.48C12.8935 102.48 14.1074 102.946 15.039 103.877C15.9706 104.808 16.4364 106.063 16.4364 107.643C16.4364 109.223 15.9706 110.479 15.039 111.41C14.1074 112.341 12.8935 112.807 11.3973 112.807ZM51.1733 118.817C54.3069 118.817 56.9606 117.744 59.1343 115.6C61.308 113.428 62.3949 110.775 62.3949 107.643C62.3949 104.512 61.308 101.873 59.1343 99.729C56.9606 97.5565 54.3069 96.4702 51.1733 96.4702C48.0398 96.4702 45.3861 97.5565 43.2124 99.729C41.0386 101.873 39.9518 104.512 39.9518 107.643C39.9518 110.775 41.0386 113.428 43.2124 115.6C45.3861 117.744 48.0398 118.817 51.1733 118.817ZM51.1733 112.638C49.7901 112.638 48.6326 112.172 47.701 111.241C46.7694 110.31 46.3036 109.111 46.3036 107.643C46.3036 106.176 46.7694 104.977 47.701 104.046C48.6326 103.115 49.7901 102.649 51.1733 102.649C52.5566 102.649 53.7141 103.115 54.6457 104.046C55.5773 104.977 56.0431 106.176 56.0431 107.643C56.0431 109.111 55.5773 110.31 54.6457 111.241C53.7141 112.172 52.5566 112.638 51.1733 112.638ZM77.9038 96.4702C80.6986 96.4702 83.0841 97.5565 85.0602 99.729C87.0363 101.873 88.0244 104.512 88.0244 107.643C88.0244 110.775 87.0363 113.428 85.0602 115.6C83.0841 117.744 80.6986 118.817 77.9038 118.817C75.1937 118.817 73.0905 117.956 71.5943 116.235V126.689H65.2425V97.0627H71.5943V99.0519C73.0905 97.3308 75.1937 96.4702 77.9038 96.4702ZM72.9917 111.41C73.9516 112.341 75.1655 112.807 76.6334 112.807C78.1014 112.807 79.3012 112.341 80.2328 111.41C81.1926 110.479 81.6726 109.223 81.6726 107.643C81.6726 106.063 81.1926 104.808 80.2328 103.877C79.3012 102.946 78.1014 102.48 76.6334 102.48C75.1655 102.48 73.9516 102.946 72.9917 103.877C72.0601 104.808 71.5943 106.063 71.5943 107.643C71.5943 109.223 72.0601 110.479 72.9917 111.41ZM32.2453 97.8837C28.8444 99.3499 26.7031 102.369 26.7031 105.214V118.224H33.0549V108.659C33.0549 106.741 33.7183 105.4 35.0451 104.638C36.4002 103.848 37.8541 103.58 39.4067 103.834V96.6395C39.2502 96.6395 39.0832 96.6369 38.9055 96.6341C37.4494 96.6112 35.2763 96.577 32.2453 97.8837ZM96.4226 97.8845C93.0217 99.3507 90.8804 102.37 90.8804 105.215V118.225H97.2322V108.66C97.2322 106.741 97.8957 105.401 99.2225 104.639C100.578 103.849 102.031 103.581 103.584 103.835V96.6402C103.428 96.6402 103.261 96.6376 103.083 96.6348C101.627 96.6119 99.4537 96.5778 96.4226 97.8845Z" fill="white"/>
</svg>
